<svg width="552" height="82" viewBox="0 0 552 82" fill="none" xmlns="http://www.w3.org/2000/svg">
<path d="M536.513 52.5755V61.6837H535.324V52.5755H536.513ZM539.44 52.5755V53.5639H532.403V52.5755H539.44ZM541.173 52.5755H542.343L545.327 60.001L548.304 52.5755H549.48L545.777 61.6837H544.864L541.173 52.5755ZM540.791 52.5755H541.824L541.992 58.1305V61.6837H540.791V52.5755ZM548.824 52.5755H549.856V61.6837H548.655V58.1305L548.824 52.5755Z" fill="#376FB6"/>
<path d="M34.1303 64.3514L22.6842 28.9112L15.3799 63.8209C15.2167 64.6166 14.4617 65.2287 13.666 65.2287H1.0569C0.261184 65.2287 -0.126474 64.6166 0.0367505 63.8209L12.3806 4.9376C12.5438 4.14188 13.1967 3.52979 13.9925 3.52979H28.5399C29.254 3.52979 29.7232 3.79503 29.9477 4.40712L41.4346 40.0309L48.7797 4.9376C48.9429 4.14188 49.5958 3.52979 50.3916 3.52979H63.0007C63.7964 3.52979 64.2861 4.14188 64.1228 4.9376L51.7994 63.8413C51.6362 64.637 50.8812 65.2491 50.0855 65.2491H35.5381C34.8444 65.2491 34.3547 64.9839 34.1303 64.3514Z" fill="#376FB6"/>
<path d="M67.7344 23.4635C67.8977 22.6678 68.6526 22.0557 69.4483 22.0557H81.6085C82.4043 22.0557 82.8939 22.6678 82.7307 23.4635L74.2634 63.8412C74.1002 64.637 73.3453 65.2491 72.5496 65.2491H60.3893C59.5936 65.2491 59.1039 64.637 59.2672 63.8412L67.7344 23.4635ZM70.4684 7.9368C71.3866 3.52973 75.4876 0 80.1599 0C84.7506 0 87.4438 3.52973 86.5257 7.9368C85.5871 12.4255 81.4045 15.9552 76.8342 15.9552C72.1415 15.9552 69.5299 12.4459 70.4684 7.9368Z" fill="#376FB6"/>
<path d="M83.8935 63.8412L90.2592 33.4202H85.138C84.3423 33.4202 83.9547 32.8081 84.1179 32.0124L85.9134 23.4635C86.0766 22.6678 86.7295 22.0557 87.5252 22.0557H92.6464L93.7686 16.6693C96.0945 5.56998 103.44 0.795654 113.498 0.795654C116.314 0.795654 118.313 0.979285 120.823 2.46871C121.292 2.73395 121.435 3.34604 121.313 3.87652L119.252 13.7516C119.13 14.3637 118.579 14.4657 117.987 14.3637C116.457 14.0985 115.273 13.8332 114.212 13.8332C110.254 13.8332 108.867 15.7715 108.296 18.5055L107.561 22.0353H116.192C116.987 22.0353 117.375 22.6474 117.212 23.4431L115.416 31.992C115.253 32.7877 114.6 33.3998 113.804 33.3998H105.174L98.8081 63.8208C98.6449 64.6165 97.89 65.2286 97.0943 65.2286H85.0156C84.1995 65.249 83.7098 64.6165 83.8935 63.8412Z" fill="#376FB6"/>
<path d="M121.252 23.4635C121.415 22.6678 122.17 22.0557 122.965 22.0557H135.126C135.921 22.0557 136.411 22.6678 136.248 23.4635L127.781 63.8412C127.617 64.637 126.862 65.2491 126.067 65.2491H113.906C113.111 65.2491 112.621 64.637 112.784 63.8412L121.252 23.4635ZM123.986 7.9368C124.904 3.52973 129.005 0 133.677 0C138.268 0 140.961 3.52973 140.043 7.9368C139.104 12.4255 134.922 15.9552 130.331 15.9552C125.659 15.9552 123.047 12.4459 123.986 7.9368Z" fill="#376FB6"/>
<path d="M149.734 63.8412L162.078 4.95786C162.241 4.16214 162.894 3.55005 163.69 3.55005H183.093C198.253 3.55005 203.66 11.8337 201.109 23.9939C198.559 36.1542 189.684 44.4378 174.524 44.4378H169.138L165.077 63.8412C164.914 64.6369 164.159 65.249 163.364 65.249H150.754C149.979 65.249 149.571 64.6165 149.734 63.8412ZM177.013 30.8698C181.073 30.8698 185.256 29.8088 186.48 23.9939C187.704 18.1791 183.95 17.1181 179.89 17.1181H174.871L171.994 30.8698H177.013Z" fill="#201B4F"/>
<path d="M196.988 43.6423C199.641 30.9516 209.924 20.9949 221.839 20.9949C227.919 20.9949 231.612 23.1984 233.551 26.9934L234.469 23.4636C234.632 22.6679 235.387 22.0558 236.183 22.0558H247.119C247.914 22.0558 248.404 22.6679 248.241 23.4636L239.773 63.8413C239.61 64.6371 238.774 65.2492 237.978 65.2492H227.124C226.328 65.2492 225.838 64.6371 226.001 63.8413L226.573 60.23C222.88 64.025 218.248 66.3101 212.331 66.3101C200.457 66.2897 194.315 56.435 196.988 43.6423ZM218.513 52.9053C223.716 52.9053 228.103 49.2123 229.286 43.5607C230.449 38.011 227.593 34.3997 222.39 34.3997C217.269 34.3997 212.617 38.0927 211.454 43.6627C210.271 49.2939 213.392 52.9053 218.513 52.9053Z" fill="#201B4F"/>
<path d="M250.648 80.4086L260.177 65.2491L252.158 23.5452C252.015 22.5659 252.648 22.0354 253.627 22.0354H265.889C266.603 22.0354 267.216 22.3822 267.338 23.0964L270.949 47.9473L285.068 23.0964C285.476 22.3822 286.252 22.0354 286.966 22.0354H299.228C300.207 22.0354 300.534 22.5659 299.963 23.5452L265.114 80.9391C264.706 81.6532 263.931 82.0001 263.217 82.0001H251.485C250.403 82.0001 249.914 81.4696 250.648 80.4086Z" fill="#201B4F"/>
<path d="M295.474 63.8413L303.941 23.4636C304.104 22.6679 304.859 22.0558 305.655 22.0558H317.285C317.999 22.0558 318.529 22.4027 318.284 23.5656L317.734 27.8911C321.059 23.8309 325.609 21.0153 331.261 21.0153C336.545 21.0153 340.238 23.5656 341.728 28.2379C345.176 24.0145 350.113 21.0153 356.459 21.0153C365.885 21.0153 370.333 27.6259 367.966 38.9088L362.743 63.8617C362.579 64.6575 361.825 65.2695 361.029 65.2695H349.032C348.236 65.2695 347.746 64.6575 347.91 63.8617L352.398 42.4385C353.48 37.2357 352.276 34.5833 348.318 34.5833C344.523 34.5833 342.034 37.2357 340.952 42.4385L336.464 63.8617C336.3 64.6575 335.545 65.2695 334.75 65.2695H322.936C321.957 65.2695 321.467 64.6575 321.651 63.8617L326.14 42.4385C327.221 37.2357 326.099 34.5833 322.141 34.5833C318.448 34.5833 315.856 37.2357 314.775 42.4385L310.286 63.8617C310.123 64.6575 309.368 65.2695 308.573 65.2695H296.576C295.8 65.2491 295.311 64.6166 295.474 63.8413Z" fill="#201B4F"/>
<path d="M371.332 43.4791C373.985 30.7884 384.941 20.9949 398.428 20.9949C411.649 20.9949 417.301 30.6047 414.975 41.704C413.995 46.3763 412.241 49.294 407.915 49.294H384.574C385.329 53.2522 388.798 54.762 394.184 54.762C396.653 54.762 399.489 54.6804 403.508 52.7421C404.283 52.3952 404.692 52.5584 404.977 53.2725L407.854 58.9242C408.099 59.4547 408.038 60.1484 406.997 60.9441C402.61 64.6371 396.693 66.3305 390.532 66.3305C376.331 66.2897 368.537 56.7819 371.332 43.4791ZM402.386 39.1536C402.468 34.5629 399.611 33.0735 396 33.0735C392.205 33.0735 388.512 34.7466 386.431 39.1536H402.386Z" fill="#201B4F"/>
<path d="M414.77 63.8413L423.237 23.4636C423.401 22.6679 424.156 22.0558 424.951 22.0558H436.581C437.295 22.0558 437.826 22.4027 437.601 23.5656L437.03 28.4216C440.417 24.0145 444.844 21.0153 450.924 21.0153C459.82 21.0153 465.125 27.7075 462.778 38.9088L457.555 63.8617C457.392 64.6575 456.556 65.2695 455.76 65.2695H443.865C443.069 65.2695 442.579 64.6575 442.743 63.8617L447.191 42.6221C448.313 37.2357 446.66 34.6037 442.355 34.6037C438.132 34.6037 435.194 37.2561 434.071 42.6221L429.623 63.8617C429.46 64.6575 428.705 65.2695 427.91 65.2695H415.913C415.096 65.2491 414.607 64.6166 414.77 63.8413Z" fill="#201B4F"/>
<path d="M468.88 51.7624L472.715 33.42H467.329C466.533 33.42 466.145 32.8079 466.309 32.0122L468.104 23.4633C468.267 22.6676 468.92 22.0555 469.716 22.0555H475.102L477.204 11.9968C477.367 11.2011 478.122 10.589 478.918 10.589H491.078C491.874 10.589 492.363 11.2011 492.2 11.9968L490.099 22.0555H496.526C497.321 22.0555 497.811 22.6676 497.648 23.4633L495.852 32.0122C495.689 32.8079 494.934 33.42 494.138 33.42H487.712L484.202 50.171C483.753 52.2929 485.08 53.5171 487.201 53.5171C487.997 53.5171 488.67 53.5987 489.935 53.5171C490.67 53.4355 491.364 53.8639 491.18 54.7413L489.487 62.8617C488.997 65.1468 483.937 65.7793 480.754 65.7793C473.429 65.7793 466.615 62.5148 468.88 51.7624Z" fill="#201B4F"/>
<path d="M493.24 58.8017C492.914 58.2712 493.24 57.1286 494.138 56.1493L499.157 50.6813C500.218 49.4571 500.953 49.7019 501.565 50.1508C504.972 52.8032 507.625 54.0274 510.359 54.0274C512.297 54.0274 513.644 53.4969 513.97 51.9055C514.235 50.6813 513.562 50.0488 511.154 48.9062L505.972 46.7027C500.708 44.4991 497.913 40.5409 499.157 34.624C500.994 25.8915 509.522 20.954 517.989 20.954C523.886 20.954 528.864 23.3411 531.782 27.9114C532.19 28.5235 531.863 29.2376 531.333 29.6661L525.049 35.6646C524.396 36.2767 523.702 36.1951 523.029 35.6646C520.642 33.5427 518.601 32.4001 516.398 32.4001C514.011 32.4001 513.378 33.7263 513.195 34.6036C512.95 35.7462 513.99 36.7256 515.378 37.256L521.682 39.9901C526.62 42.112 530.027 46.0702 528.558 52.5992C526.477 61.6785 517.765 66.2692 508.767 66.2692C501.442 66.2896 496.158 63.3924 493.24 58.8017Z" fill="#201B4F"/>
</svg>
