<svg width="247" height="60" viewBox="0 0 247 60" fill="none" xmlns="http://www.w3.org/2000/svg">
<g clip-path="url(#clip0_9520_18608)">
<path d="M247 0H164.662V60H247V0Z" fill="#1881A4"/>
<path d="M164.662 0H0V59.995H164.662V0Z" fill="#ED1C24"/>
<path d="M34.7962 6.13086H31.9375V39.7229H34.7962V6.13086Z" fill="white"/>
<path d="M41.5085 6.125H38.6699V39.717H41.5085V6.125Z" fill="white"/>
<path d="M27.3704 37.1085C26.4511 37.1085 26.3656 35.9445 26.3656 34.3008V20.7621C26.3656 16.4357 23.3211 14.1276 17.5586 14.0977C11.6453 14.0977 8.25914 17.0352 8.01799 22.3858V22.9603H10.8817V22.4307C11.0977 18.7638 13.4741 16.7305 17.5586 16.7105C22.5524 16.7105 23.5723 19.9078 23.5723 20.7621C23.5271 24.3491 23.5221 24.489 15.966 25.1035C13.6951 25.2833 6.78711 25.8229 6.78711 32.5673C6.80721 37.2484 9.73117 39.7263 15.2375 39.7263C19.2868 39.7263 22.05 37.9028 23.5422 35.8895C23.6627 37.4582 24.3259 39.7263 27.2448 39.7263C27.7573 39.7263 28.2597 39.6264 28.7319 39.5315L29.1942 39.4515V36.8437L28.5611 36.9986C27.9934 37.0735 27.6317 37.1135 27.3604 37.1135L27.3704 37.1085ZM23.5221 29.6897C23.5221 29.7646 23.4266 37.1035 15.2626 37.1035C11.8011 37.1035 9.65079 35.3599 9.65079 32.5573C9.65079 29.5997 11.379 28.1859 15.6193 27.6813C16.4734 27.5664 17.3576 27.4965 18.2167 27.4265C20.2514 27.2617 22.1857 27.1068 23.5221 26.4124V29.6897Z" fill="white"/>
<path d="M63.6847 30.2952C63.1019 34.4318 60.0975 37.1046 56.0331 37.1046C50.6423 37.1046 47.5375 33.3077 47.5124 26.6833C47.5124 21.7424 50.4414 16.7266 56.0331 16.7066C60.3939 16.7316 63.1772 18.8898 63.4686 22.4518V23.0063H66.3926L66.3072 22.3918C65.8399 17.2711 61.9062 14.0938 56.0331 14.0938C49.3461 14.1137 44.6738 19.2944 44.6738 26.6833C44.6738 32.983 47.6581 39.7174 56.0331 39.7174H56.0582C61.6499 39.7174 65.7646 36.0804 66.5433 30.3952V29.8156H63.76L63.6897 30.2952H63.6847Z" fill="white"/>
<path d="M89.256 37.1085C88.3768 37.1085 88.2814 35.9644 88.2512 34.3008V20.7621C88.2512 16.4957 85.1313 14.1276 79.4693 14.0977C73.5359 14.0977 70.1498 17.0352 69.9337 22.3358L69.8584 22.9603H72.7723V22.4307C72.9934 18.7638 75.3697 16.7305 79.4743 16.7105C84.3727 16.7105 85.4479 19.9128 85.4629 20.7621C85.4177 24.3491 85.4177 24.489 77.8566 25.1035C75.5857 25.2833 68.6777 25.8229 68.6777 32.5673C68.6777 37.1834 71.6771 39.7263 77.1281 39.7263C81.1825 39.7263 83.9457 37.9078 85.4328 35.8895C85.5534 37.4582 86.2115 39.7263 89.1103 39.7263C89.6278 39.7263 90.1151 39.6314 90.6577 39.5315L91.0898 39.4415V36.8437L90.4568 37.0036C89.8891 37.0785 89.5273 37.1185 89.256 37.1185V37.1085ZM85.4127 29.6847C85.4077 29.9894 85.1816 37.1085 77.1532 37.1085C73.6364 37.1085 71.5414 35.4099 71.5414 32.5623C71.5414 29.7146 73.2697 28.1909 77.5099 27.6863C78.359 27.5714 79.2482 27.5015 80.1073 27.4315C82.1421 27.2667 84.0813 27.1118 85.4127 26.4174V29.6897V29.6847Z" fill="white"/>
<path d="M104.166 17.8359C104.463 17.8359 104.734 17.8559 104.98 17.8758L105.593 17.9708V15.0582H105.121C104.935 15.0332 104.774 15.0332 104.614 15.0332C101.227 15.0532 98.0925 16.5769 96.4496 18.875V15.1981H93.5859V39.7176H96.4496V26.3738C96.6355 22.9066 97.3389 21.6577 98.9315 20.0041C100.886 18.1156 103.051 17.8359 104.166 17.8359Z" fill="white"/>
<path d="M127.478 37.7695L127.362 37.8844V38.0443C127.388 40.0876 127.388 41.921 127.388 42.0409C127.388 42.0759 127.187 45.523 125.931 47.5963C124.293 50.2441 121.695 51.573 117.782 51.7828H116.4C115.375 51.8128 112.883 51.548 110.798 50.334C108.99 49.2449 107.804 47.7362 107.161 45.7279L107.076 45.4581H104.076L104.212 45.9477C105.262 49.7895 107.593 51.8028 109.361 52.812C112.21 54.4506 115.24 54.6254 116.41 54.6254H117.892C124.318 54.3457 127.232 51.0135 128.402 49.0501C129.578 47.0717 130.201 44.7237 130.251 42.0559L130.226 34.4473C130.226 34.4473 128.232 36.9951 127.478 37.7645V37.7695Z" fill="white"/>
<path d="M142.757 13.7882H142.662C141.667 13.7882 140.502 13.9331 139.376 14.1979C138.371 14.4427 137.512 14.7874 136.513 15.3419C134.93 16.2262 133.548 17.4152 132.403 18.874C131.388 20.1679 130.735 21.5417 130.253 22.7258V22.7607L129.956 23.4651C129.584 24.4493 129.258 25.4685 128.941 26.4576L128.605 27.5018C128.288 28.426 127.992 29.2553 127.605 30.0646L127.424 30.4443C127.138 31.0538 126.836 31.6783 126.485 32.1879C125.168 33.9964 123.47 35.3952 121.712 36.1246C120.511 36.6342 119.27 36.869 117.803 36.869C112.211 36.849 107.65 32.3078 107.625 26.7524C107.645 21.172 112.211 16.6308 117.798 16.6308C120.531 16.6308 123.144 17.7299 125.028 19.6633L122.762 21.9214H129.178V15.5367L127.067 17.635C124.591 15.1471 121.315 13.7832 117.798 13.7832C110.609 13.7832 104.756 19.5984 104.756 26.7474C104.756 33.8964 110.604 39.7116 117.798 39.7116C120.928 39.7116 123.892 38.6525 126.158 36.7241C127.922 35.1954 129.278 33.282 130.253 31.0638C130.348 30.799 130.881 29.5051 130.981 29.2153L131.122 28.7507C131.961 26.018 132.825 23.1954 134.493 20.8623C135.689 19.1637 137.392 17.8898 139.286 17.2703C140.572 16.8357 141.672 16.6308 142.752 16.6308C148.339 16.6308 152.901 21.172 152.926 26.7474C152.901 32.3078 148.339 36.844 142.752 36.869C140.034 36.869 137.502 35.8198 135.573 33.9014L137.894 31.6283H131.443V38.013L133.553 35.9098C136 38.3677 139.251 39.7166 142.752 39.7166C149.942 39.7166 155.79 33.9014 155.79 26.7524C155.79 19.6034 149.942 13.7882 142.752 13.7882H142.757Z" fill="white"/>
<path d="M185.466 29.7696H193.439C193.464 29.8445 193.414 29.9095 193.394 29.9744C192.615 32.2076 191.831 34.4357 191.053 36.6689C191.002 36.8137 190.927 36.8737 190.766 36.8987C189.998 37.0086 189.224 37.1135 188.45 37.1934C187.672 37.2783 186.883 37.3483 186.099 37.3982C184.838 37.4832 183.572 37.5381 182.311 37.5181C180.377 37.4982 178.453 37.3383 176.569 36.8887C175.338 36.5989 174.152 36.1942 173.067 35.5398C172.414 35.1401 171.836 34.6655 171.389 34.041C170.756 33.1568 170.54 32.1726 170.711 31.1085C170.922 29.7746 171.545 28.6355 172.434 27.6364C173.358 26.6022 174.474 25.8079 175.694 25.1485C177.322 24.2742 179.055 23.6797 180.854 23.255C182.035 22.9753 183.23 22.7854 184.431 22.6505C186.119 22.4657 187.817 22.4607 189.515 22.5007C190.189 22.5157 190.862 22.5456 191.535 22.5806C192.54 22.6356 193.545 22.7105 194.539 22.8554C194.796 22.8903 194.801 22.8903 194.72 23.1251C194.414 24.0094 194.107 24.9037 193.806 25.7929C193.746 25.9678 193.69 26.0277 193.489 25.9128C192.967 25.6231 192.399 25.4682 191.821 25.3333C190.957 25.1335 190.083 25.0086 189.204 24.9137C188.315 24.8187 187.42 24.7588 186.526 24.7888C184.984 24.8387 183.472 25.0785 182.04 25.698C180.884 26.2026 179.889 26.917 179.141 27.9461C178.523 28.8054 178.181 29.7646 178.036 30.8037C177.96 31.3483 177.97 31.8878 178.106 32.4174C178.342 33.3566 178.92 34.0311 179.759 34.5007C180.377 34.8404 181.045 35.0252 181.738 35.1301C182.738 35.285 183.743 35.285 184.753 35.2201C184.944 35.2051 185.034 35.1401 185.099 34.9503C185.426 33.9961 185.773 33.0519 186.114 32.1027C186.225 31.7829 186.325 31.4582 186.375 31.1235C186.431 30.7438 186.31 30.444 186.034 30.1942C185.913 30.0893 185.778 30.0044 185.642 29.9195C185.582 29.8845 185.511 29.8695 185.456 29.7646" fill="white"/>
<path d="M201.061 23.1643C201.142 23.1293 201.212 23.1393 201.277 23.1393C203.815 23.1393 206.357 23.1393 208.894 23.1393C208.924 23.1393 208.954 23.1393 208.984 23.1393C209.09 23.1243 209.145 23.1743 209.165 23.2842C209.261 23.6889 209.361 24.0885 209.456 24.4882C210.19 27.5456 210.929 30.6031 211.667 33.6556C211.762 34.0452 211.863 34.4299 211.963 34.8146C212.129 35.4491 212.451 35.9936 212.938 36.4382C213.104 36.5831 213.27 36.723 213.43 36.8729C213.476 36.9128 213.541 36.9328 213.541 37.0078C213.491 37.0627 213.425 37.0377 213.37 37.0377H206.025C205.829 37.0377 205.829 37.0377 205.789 36.8529C205.437 35.2492 205.086 33.6506 204.729 32.0519C204.709 31.962 204.689 31.867 204.654 31.7422C204.583 31.8221 204.568 31.897 204.548 31.962C204.392 32.3666 204.196 32.7463 203.88 33.0511C203.583 33.3358 203.237 33.4857 202.815 33.4857C201.378 33.4857 199.936 33.4857 198.494 33.4807C198.323 33.4807 198.218 33.5307 198.117 33.6655C197.786 34.1152 197.439 34.5548 197.097 34.9944C196.917 35.2292 196.761 35.474 196.645 35.7488C196.525 36.0336 196.575 36.2934 196.791 36.5182C196.912 36.6431 197.052 36.743 197.193 36.8529C197.248 36.8979 197.324 36.9228 197.359 36.9978C197.359 37.0078 197.354 37.0128 197.344 37.0178C197.344 37.0178 197.339 37.0327 197.329 37.0327C195.545 37.0327 193.767 37.0377 191.988 37.0377C191.968 37.0377 191.938 37.0377 191.928 36.9978C191.958 36.9178 192.028 36.8529 192.089 36.778C194.922 33.2559 197.756 29.7338 200.589 26.2118C200.896 25.8321 201.187 25.4374 201.483 25.0477C201.594 24.9128 201.689 24.768 201.765 24.6131C201.956 24.2384 201.9 23.8987 201.609 23.5939C201.498 23.479 201.368 23.3891 201.237 23.2992C201.182 23.2642 201.112 23.2442 201.066 23.1693M204.638 31.5873C204.282 29.9486 203.94 28.335 203.593 26.7213C203.558 26.7313 203.538 26.7313 203.528 26.7413C202.302 28.31 201.081 29.8787 199.856 31.4474C199.83 31.4774 199.81 31.5123 199.795 31.5423C199.795 31.5473 199.795 31.5573 199.795 31.5673C199.795 31.5723 199.8 31.5773 199.805 31.5873H204.633H204.638Z" fill="white"/>
<path d="M240.865 23.1059H240.73C239.599 23.1159 238.459 23.1109 237.323 23.1259C235.922 23.1458 234.52 23.1408 233.118 23.1408C227.582 23.1408 222.04 23.1408 216.504 23.1408C216.067 23.1408 215.625 23.1658 215.193 23.0909C215.057 23.0709 214.977 23.1109 214.891 23.2208C214.143 24.18 213.389 25.1292 212.635 26.0834C212.585 26.1433 212.54 26.2083 212.475 26.2982C212.841 26.1833 213.168 26.0684 213.494 25.9685C214.273 25.7287 215.062 25.5688 215.876 25.4989C216.484 25.4439 217.102 25.4539 217.71 25.4539C218.081 25.4539 218.453 25.4789 218.825 25.5039C218.92 25.5089 218.971 25.5388 218.92 25.6438C218.91 25.6687 218.9 25.6987 218.89 25.7287C217.83 28.7562 216.775 31.7786 215.72 34.8061C215.479 35.5055 215.233 36.2 214.992 36.8944C214.941 37.0393 214.946 37.0393 215.102 37.0493C215.157 37.0493 215.208 37.0493 215.263 37.0493H219.287C220.573 37.0493 221.859 37.0493 223.151 37.0493C223.221 37.0493 223.296 37.0792 223.372 36.9943C223.221 36.8844 223.08 36.7745 222.95 36.6446C222.598 36.2949 222.427 35.8752 222.467 35.3806C222.492 35.0159 222.598 34.6712 222.714 34.3315C223.321 32.588 223.924 30.8494 224.527 29.1059C224.914 27.9818 225.306 26.8577 225.693 25.7387C225.743 25.5838 225.813 25.5139 225.989 25.4939C226.693 25.414 227.391 25.409 228.099 25.4289C228.451 25.4389 228.808 25.4689 229.154 25.5538C229.637 25.6687 230.084 25.8386 230.345 26.2982C230.425 26.2732 230.45 26.2033 230.491 26.1533C231.144 25.2741 231.792 24.3998 232.445 23.5155C232.701 23.1658 232.701 23.1658 233.068 23.4056C233.49 23.6804 233.701 24.0651 233.661 24.5747C233.646 24.7445 233.616 24.9194 233.565 25.0842C233.49 25.374 233.369 25.6488 233.269 25.9335C231.988 29.5805 230.651 33.3823 229.37 37.0343H237.775C237.615 36.9493 237.419 36.8594 237.288 36.7645C236.992 36.5497 236.796 36.2799 236.761 35.9102C236.73 35.6454 236.786 35.4006 236.846 35.1508C236.936 34.8061 237.072 34.4814 237.193 34.1467C238.373 30.7645 239.554 27.3873 240.735 24.0051C240.82 23.7653 240.91 23.5255 240.986 23.2807C241.026 23.1458 241.011 23.1259 240.865 23.1209V23.1059ZM235.851 35.2607L235.821 35.2508L235.042 35.2607L238.886 24.3748H239.695L235.851 35.2607Z" fill="white"/>
</g>
<defs>
<clipPath id="clip0_9520_18608">
<rect width="247" height="60" fill="white"/>
</clipPath>
</defs>
</svg>
