<svg viewBox="0 0 120.219 68.566" height="68.566" width="120.219" xmlns="http://www.w3.org/2000/svg" data-name="Group 2553" id="Group_2553">
  <path fill="#fff" transform="translate(-848.493 -111.213)" d="M901.595,112.562H879.376a.761.761,0,0,0,0,1.523h21.457v6.039H886.9a.762.762,0,0,0-.761.761v3.682a.761.761,0,0,0,.761.761h8.9v5.348h-8.9a.761.761,0,0,0-.761.761v4.638a.762.762,0,0,0,.761.761h13.935v6.038h-20.7V117.809a.761.761,0,1,0-1.523,0v25.828a.762.762,0,0,0,.761.761h22.219a.762.762,0,0,0,.761-.761v-7.561a.761.761,0,0,0-.761-.761H887.66V132.2h8.9a.762.762,0,0,0,.761-.761v-6.871a.762.762,0,0,0-.761-.761h-8.9v-2.159h13.935a.761.761,0,0,0,.761-.761v-7.561a.761.761,0,0,0-.761-.761" data-name="Path 1" id="Path_1"></path>
  <path fill="#fff" transform="translate(-769.819 -111.367)" d="M797.4,112.775h-7.522a.761.761,0,0,0-.761.761v14.348l-10.646-14.793a.763.763,0,0,0-.618-.317H770.58a.761.761,0,0,0-.761.761v30.2a.761.761,0,0,0,.761.761H778.1a.761.761,0,0,0,0-1.523h-6.76V114.3h6.117l11.8,16.393a.761.761,0,0,0,1.38-.445V114.3h6V142.97h-6.117l-11.8-16.5a.761.761,0,0,0-1.381.443v11.6a.761.761,0,1,0,1.523,0v-9.223l10.643,14.888a.762.762,0,0,0,.62.319h7.27a.762.762,0,0,0,.761-.761v-30.2a.761.761,0,0,0-.761-.761" data-name="Path 2" id="Path_2"></path>
  <path fill="#fff" transform="translate(-940.957 -133.497)" d="M1011.556,143.746a7.371,7.371,0,1,0,9.306,4.7,7.324,7.324,0,0,0-9.306-4.7m7.52,9.644a5.848,5.848,0,1,1,.34-4.464,5.811,5.811,0,0,1-.34,4.464" data-name="Path 3" id="Path_3"></path>
  <path fill="#fff" transform="translate(-915.167 -107.691)" d="M995.845,109.559a17.244,17.244,0,0,0-20.323,27.224.761.761,0,0,0,1.106-1.047,15.552,15.552,0,0,1-3.5-5.883,15.726,15.726,0,1,1,26.5,5.756.761.761,0,1,0,1.121,1.031,17.235,17.235,0,0,0-4.9-27.081" data-name="Path 4" id="Path_4"></path>
  <path fill="#fff" transform="translate(-1009.796 -111.367)" d="M1129.254,117.585a.761.761,0,0,0-.761.761V142.97h-6.117l-11.8-16.5a.762.762,0,0,0-1.381.443V142.97h-6V114.3h6.117l11.8,16.393a.762.762,0,0,0,1.38-.445V114.3h6.76a.761.761,0,0,0,0-1.523h-7.522a.761.761,0,0,0-.761.761v14.348l-10.646-14.793a.763.763,0,0,0-.618-.317h-7.268a.761.761,0,0,0-.762.761v30.2a.762.762,0,0,0,.762.761h7.521a.762.762,0,0,0,.761-.761V129.287l10.643,14.888a.762.762,0,0,0,.619.319h7.27a.761.761,0,0,0,.761-.761V118.347a.761.761,0,0,0-.761-.761" data-name="Path 5" id="Path_5"></path>
  <path fill="#17dd7e" transform="translate(-859.793 -227.759)" d="M917.407,276.249c-2.747,2.766-12.912,10.274-14.263,3.53-2.015,1.549-4.351,4.03-7.016,3.285-1.923-.538-2.154-2.549-1.667-4.226,1.372-4.726,7.191-6.389,11.189-4.071.891.517-.051,1.808-.931,1.3a5.748,5.748,0,0,0-6.122.114c-1.485.887-3.665,2.861-2.1,4.538,1.927,2.063,4.973-1.891,6.966-3.069.585-.346,1.11.292,1.118.816.109,6.615,10.533-2.162,11.811-3.449.724-.73,1.729.512,1.013,1.234" data-name="Path 6" id="Path_6"></path>
  <path fill="#17dd7e" transform="translate(-859.071 -227.024)" d="M896.4,282.743a3.947,3.947,0,0,1-1.071-.148,2.659,2.659,0,0,1-1.68-1.284,4.369,4.369,0,0,1-.178-3.285,7.176,7.176,0,0,1,4.352-4.7,8.347,8.347,0,0,1,7.242.469.934.934,0,0,1,.35,1.335,1.137,1.137,0,0,1-1.559.441,5.479,5.479,0,0,0-5.841.112c-1.053.629-2.338,1.746-2.49,2.826a1.5,1.5,0,0,0,.452,1.286c1.137,1.217,2.7.065,4.777-1.7a15.031,15.031,0,0,1,1.846-1.421.885.885,0,0,1,.914-.021,1.3,1.3,0,0,1,.623,1.071c.018,1.109.344,1.8.967,2.05,2.492,1,9.135-4.446,10.37-5.69a.916.916,0,0,1,.908-.274,1.155,1.155,0,0,1,.784.821,1.089,1.089,0,0,1-.286,1.077c-1.951,1.965-8.814,7.3-12.508,6.194a3.14,3.14,0,0,1-2.121-2.375c-.211.169-.426.346-.649.529-1.546,1.271-3.267,2.686-5.2,2.686m4.583-9.476a7.95,7.95,0,0,0-2.956.57A6.634,6.634,0,0,0,894,278.179a3.828,3.828,0,0,0,.13,2.862,2.125,2.125,0,0,0,1.346,1.021c2.1.587,4.05-1.017,5.772-2.433.347-.285.674-.554,1-.805l.353-.271.087.436a2.752,2.752,0,0,0,1.84,2.384c3.261.98,9.784-3.867,11.955-6.054h0a.536.536,0,0,0,.144-.542.612.612,0,0,0-.391-.431.378.378,0,0,0-.374.129c-.9.911-7.992,7.009-10.97,5.813-.849-.342-1.291-1.2-1.314-2.554a.751.751,0,0,0-.339-.6.338.338,0,0,0-.361.013,14.76,14.76,0,0,0-1.77,1.367c-1.762,1.493-3.955,3.35-5.539,1.653a2.05,2.05,0,0,1-.6-1.742c.18-1.271,1.541-2.5,2.755-3.223a6.007,6.007,0,0,1,6.4-.116.585.585,0,0,0,.8-.24.388.388,0,0,0-.149-.578,7.587,7.587,0,0,0-3.8-1" data-name="Path 7" id="Path_7"></path>
  <path fill="#17dd7e" transform="translate(-900.414 -177.03)" d="M987.152,210.9c-6.5.475-13,.955-19.471,1.639-2.657,10.009-3.946,14.514-5.05,24.864a.8.8,0,0,1-1.587-.176c1.091-10.229,2.354-14.616,4.948-24.506q-2.4.268-4.793.58c-3.011,12.388-4.127,17.672-4.82,30.353-.056,1.027-1.643.848-1.587-.176.686-12.549,1.775-17.683,4.716-29.95-2.742.381-5.478.811-8.206,1.318-1.011.188-1.249-1.391-.238-1.579,2.942-.547,5.894-1.01,8.854-1.413.648-2.6,1.329-5.2,2.081-7.768.289-.987,1.778-.408,1.49.573-.676,2.31-1.295,4.641-1.885,6.982q2.406-.309,4.819-.571.636-2.349,1.325-4.693c.291-.987,1.779-.408,1.49.573-.387,1.31-.755,2.623-1.115,3.936,6.25-.645,12.522-1.107,18.791-1.565,1.018-.074,1.264,1.5.239,1.579" data-name="Path 8" id="Path_8"></path>
  <path fill="#17dd7e" transform="translate(-899.692 -176.307)" d="M954.922,243.9a1.193,1.193,0,0,1-.65-.193,1.05,1.05,0,0,1-.478-.963c.665-12.175,1.682-17.3,4.628-29.6-2.812.4-5.365.808-7.791,1.259a1,1,0,0,1-1.194-.839,1.07,1.07,0,0,1,.855-1.285c2.775-.515,5.616-.97,8.681-1.39.728-2.92,1.377-5.338,2.038-7.6a.932.932,0,0,1,.68-.683,1.16,1.16,0,0,1,1.086.343,1.073,1.073,0,0,1,.255,1.068c-.579,1.98-1.148,4.08-1.782,6.578,1.376-.174,2.8-.342,4.233-.5.416-1.531.845-3.049,1.277-4.516a.949.949,0,0,1,1.235-.663,1.109,1.109,0,0,1,.786,1.392c-.31,1.05-.632,2.183-1.006,3.541,6.253-.637,12.7-1.108,18.4-1.525a1.108,1.108,0,0,1,1.19,1.063.951.951,0,0,1-.912,1.069h0c-5.966.437-12.722.931-19.273,1.618l-.357,1.341c-2.391,8.994-3.592,13.509-4.637,23.3a1,1,0,0,1-.591.837,1.166,1.166,0,0,1-1.142-.123,1.008,1.008,0,0,1-.4-.949c1.024-9.6,2.177-13.983,4.476-22.72l.378-1.436c-1.438.163-2.848.334-4.2.51-3.043,12.525-4.088,17.68-4.768,30.118a.962.962,0,0,1-.52.836,1.087,1.087,0,0,1-.492.114m4.228-31.42-.095.395c-3.01,12.554-4.039,17.642-4.709,29.9a.5.5,0,0,0,.229.469.618.618,0,0,0,.589.049.409.409,0,0,0,.217-.372c.685-12.547,1.74-17.706,4.827-30.4l.045-.184.188-.025c1.538-.2,3.152-.4,4.8-.581l.4-.045-.582,2.217c-2.291,8.71-3.442,13.082-4.461,22.638a.45.45,0,0,0,.18.442.621.621,0,0,0,.592.064.446.446,0,0,0,.265-.39c1.049-9.831,2.253-14.36,4.652-23.381l.454-1.71.19-.02c6.619-.7,13.452-1.2,19.48-1.639a.41.41,0,0,0,.4-.476.56.56,0,0,0-.6-.551c-5.818.425-12.412.907-18.783,1.565l-.4.042.107-.39c.421-1.537.776-2.789,1.116-3.941a.563.563,0,0,0-.412-.7.4.4,0,0,0-.547.288c-.448,1.521-.893,3.1-1.323,4.686l-.049.182-.188.02c-1.638.179-3.257.371-4.814.571l-.4.052.1-.394c.676-2.68,1.276-4.9,1.888-6.992a.518.518,0,0,0-.124-.53.615.615,0,0,0-.555-.187.389.389,0,0,0-.279.3c-.673,2.3-1.333,4.762-2.078,7.757l-.045.182-.186.025c-3.127.425-6.018.887-8.841,1.411a.516.516,0,0,0-.411.639.454.454,0,0,0,.549.4c2.55-.474,5.238-.905,8.218-1.319Z" data-name="Path 9" id="Path_9"></path>
  <path fill="#17dd7e" transform="translate(-943.118 -227.759)" d="M1032.633,276.249c-2.747,2.766-12.911,10.274-14.263,3.53-2.014,1.549-4.35,4.03-7.016,3.285-1.923-.538-2.154-2.549-1.667-4.226,1.372-4.726,7.19-6.389,11.189-4.071.891.517-.051,1.808-.931,1.3a5.748,5.748,0,0,0-6.122.114c-1.485.887-3.665,2.861-2.1,4.538,1.927,2.063,4.974-1.891,6.966-3.069.585-.346,1.109.292,1.118.816.109,6.615,10.532-2.162,11.811-3.449.724-.73,1.729.512,1.013,1.234" data-name="Path 10" id="Path_10"></path>
  <path fill="#17dd7e" transform="translate(-942.394 -227.024)" d="M1011.628,282.743a3.943,3.943,0,0,1-1.071-.148,2.659,2.659,0,0,1-1.681-1.285,4.369,4.369,0,0,1-.178-3.285,7.177,7.177,0,0,1,4.352-4.7,8.347,8.347,0,0,1,7.242.469.935.935,0,0,1,.35,1.335,1.137,1.137,0,0,1-1.559.441,5.48,5.48,0,0,0-5.841.112c-1.053.629-2.337,1.746-2.49,2.826a1.5,1.5,0,0,0,.452,1.286c1.138,1.219,2.7.064,4.777-1.7a14.987,14.987,0,0,1,1.846-1.421.884.884,0,0,1,.913-.02,1.3,1.3,0,0,1,.622,1.071c.019,1.109.344,1.8.968,2.05,2.49,1,9.135-4.446,10.371-5.69a.916.916,0,0,1,.907-.274,1.154,1.154,0,0,1,.784.821,1.088,1.088,0,0,1-.286,1.077c-1.951,1.965-8.818,7.3-12.507,6.194a3.14,3.14,0,0,1-2.121-2.375c-.211.169-.426.346-.649.529-1.546,1.271-3.267,2.686-5.2,2.686m4.584-9.476a7.954,7.954,0,0,0-2.956.57,6.634,6.634,0,0,0-4.026,4.342,3.824,3.824,0,0,0,.13,2.861,2.124,2.124,0,0,0,1.346,1.021c2.1.587,4.049-1.017,5.771-2.432.347-.285.674-.554,1-.806l.353-.271.087.436a2.752,2.752,0,0,0,1.84,2.383c3.26.983,9.784-3.867,11.955-6.053h0a.536.536,0,0,0,.144-.542.613.613,0,0,0-.391-.431.378.378,0,0,0-.373.129c-.905.911-8,7.011-10.971,5.813-.849-.342-1.291-1.2-1.314-2.554a.751.751,0,0,0-.339-.6.338.338,0,0,0-.362.013,14.807,14.807,0,0,0-1.77,1.367c-1.762,1.493-3.955,3.35-5.54,1.654a2.049,2.049,0,0,1-.6-1.742c.18-1.271,1.541-2.5,2.755-3.224a6.006,6.006,0,0,1,6.4-.116.586.586,0,0,0,.8-.24.389.389,0,0,0-.149-.578,7.586,7.586,0,0,0-3.8-1" data-name="Path 11" id="Path_11"></path>
  <path fill="#17dd7e" transform="translate(-998.426 -219.547)" d="M1102.665,267.423c-2.417,3.711-13.832,16.2-16.441,6.359a10.422,10.422,0,0,1,4.159-10.651c3.037-2.052,4.38.408,4.146,3.381-.081,1.026-1.667.849-1.587-.176.224-2.847-2.223-1.729-3.347-.329a9.724,9.724,0,0,0-1.831,4.081c-.636,3.03.655,7.066,4.671,5.128,3.586-1.731,6.8-5.458,8.934-8.725.563-.863,1.854.075,1.3.933" data-name="Path 12" id="Path_12"></path>
  <path fill="#17dd7e" transform="translate(-997.712 -218.829)" d="M1089.224,277.04a3.89,3.89,0,0,1-.615-.048c-1.625-.261-2.758-1.559-3.367-3.859a10.714,10.714,0,0,1,4.271-10.951c1.569-1.06,2.6-.877,3.182-.535,1.032.6,1.554,2.16,1.4,4.168a1,1,0,0,1-1.122.938,1.068,1.068,0,0,1-1.017-1.157c.044-.554,0-1.252-.437-1.426-.559-.222-1.688.382-2.419,1.292a9.444,9.444,0,0,0-1.776,3.965c-.356,1.7-.086,3.906,1.118,4.849.786.615,1.849.607,3.161-.027,4.216-2.035,7.574-6.711,8.822-8.627a.989.989,0,0,1,1.414-.285,1.081,1.081,0,0,1,.345,1.52c-1.472,2.261-8.231,10.185-12.958,10.185m2.451-15.105a3.468,3.468,0,0,0-1.851.707,10.13,10.13,0,0,0-4.046,10.351c.548,2.068,1.531,3.23,2.92,3.453a3.318,3.318,0,0,0,.528.041c4.165,0,10.627-7.07,12.492-9.933a.532.532,0,0,0-.183-.754.442.442,0,0,0-.648.124c-1.274,1.955-4.7,6.728-9.045,8.823-1.891.913-3.079.484-3.743-.035-1.447-1.133-1.7-3.593-1.319-5.4a9.993,9.993,0,0,1,1.886-4.2c.8-1,2.162-1.815,3.055-1.459.416.165.89.643.785,1.984a.513.513,0,0,0,.508.562.456.456,0,0,0,.526-.429c.139-1.765-.291-3.162-1.122-3.646a1.451,1.451,0,0,0-.742-.191" data-name="Path 13" id="Path_13"></path>
  <path fill="#17dd7e" transform="translate(-1035.542 -194.317)" d="M1152.939,249.372a89.987,89.987,0,0,0-12.349-.231,90.41,90.41,0,0,0,2.205,12.589c.241,1-1.34,1.232-1.579.238A90.422,90.422,0,0,1,1139,249.206c-.273.012-.547.023-.821.036a.807.807,0,0,1-.626-1.406c.4-.414.809-.818,1.213-1.227a32.135,32.135,0,0,1-.159-4.163c.463-7.849-.1-6.772,1.3-14.288.187-1,1.775-.837,1.587.176-1.34,7.19-.886,5.968-1.289,13.3a33.794,33.794,0,0,0,.066,3.455c2.641-2.623,5.334-5.193,7.92-7.871.714-.74,1.719.5,1.014,1.234-2.878,2.98-5.883,5.831-8.807,8.764.01.114.025.228.035.341a92.024,92.024,0,0,1,12.686.227.8.8,0,0,1-.175,1.588" data-name="Path 14" id="Path_14"></path>
  <path fill="#17dd7e" transform="translate(-1034.816 -193.592)" d="M1141.324,262.158a1.1,1.1,0,0,1-1.1-.85,90.421,90.421,0,0,1-2.2-12.539l-.561.025a1.094,1.094,0,0,1-1.09-.626,1.116,1.116,0,0,1,.252-1.249c.258-.267.52-.53.781-.793l.345-.347c-.013-.189-.028-.379-.042-.569a26.092,26.092,0,0,1-.108-3.505c.144-2.431.188-3.99.224-5.242a44.926,44.926,0,0,1,1.08-9.08,1.065,1.065,0,0,1,.7-.832,1.161,1.161,0,0,1,1.126.187.939.939,0,0,1,.3.922,43.777,43.777,0,0,0-1.092,8.819c-.036,1.087-.082,2.439-.193,4.445a27.155,27.155,0,0,0,.035,2.807q1.093-1.081,2.193-2.156c1.747-1.713,3.555-3.484,5.282-5.274a.917.917,0,0,1,1.356-.022,1.15,1.15,0,0,1,.056,1.64c-1.76,1.822-3.6,3.625-5.372,5.368-1.083,1.064-2.2,2.163-3.3,3.257a91.5,91.5,0,0,1,12.411.24,1.021,1.021,0,0,1,.929,1.164,1.041,1.041,0,0,1-1.159.975h0a88.773,88.773,0,0,0-12.012-.24,89.908,89.908,0,0,0,2.166,12.258.943.943,0,0,1-.733,1.185,1.2,1.2,0,0,1-.28.033m-2.809-13.964.028.257a90.4,90.4,0,0,0,2.215,12.727.57.57,0,0,0,.716.409.4.4,0,0,0,.324-.517,91.017,91.017,0,0,1-2.211-12.623l-.033-.3.3-.011a90.309,90.309,0,0,1,12.387.232.494.494,0,0,0,.552-.479.471.471,0,0,0-.433-.558,92.279,92.279,0,0,0-12.647-.225l-.261.01-.041-.409c-.007-.065-.014-.13-.02-.195l-.011-.128.091-.091c1.139-1.143,2.31-2.292,3.442-3.4,1.773-1.741,3.607-3.541,5.362-5.358a.606.606,0,0,0-.042-.857.368.368,0,0,0-.573.008c-1.733,1.795-3.543,3.569-5.294,5.285q-1.317,1.292-2.631,2.59l-.442.439-.051-1.055a29.144,29.144,0,0,1-.044-3.051c.11-2,.156-3.349.192-4.433a44.213,44.213,0,0,1,1.1-8.9.4.4,0,0,0-.116-.4.618.618,0,0,0-.581-.086.512.512,0,0,0-.345.411,44.523,44.523,0,0,0-1.071,8.994c-.036,1.256-.08,2.82-.224,5.259a25.62,25.62,0,0,0,.107,3.43c.018.233.036.465.052.7l.009.125-.088.089c-.144.147-.29.292-.435.438-.26.261-.52.522-.776.787a.575.575,0,0,0-.146.637.552.552,0,0,0,.56.3Z" data-name="Path 15" id="Path_15"></path>
</svg>
