<svg width="463" height="144" viewBox="0 0 463 144" fill="none" xmlns="http://www.w3.org/2000/svg">
<path d="M19.392 59.752L31.2 85.672L43.488 59.752H54.432L66.72 86.44L79.104 59.752H98.4L72.672 109H61.056L48.768 82.024L37.056 109H25.248L0 59.752H19.392Z" fill="#212121"/>
<path d="M111.368 84.136C111.368 85.8 111.656 87.336 112.232 88.744C112.872 90.088 113.672 91.272 114.632 92.296C115.656 93.32 116.84 94.12 118.184 94.696C119.592 95.272 121.064 95.56 122.6 95.56C124.136 95.56 125.576 95.272 126.92 94.696C128.328 94.12 129.512 93.32 130.472 92.296C131.496 91.272 132.296 90.088 132.872 88.744C133.512 87.336 133.832 85.832 133.832 84.232C133.832 82.696 133.512 81.256 132.872 79.912C132.296 78.504 131.496 77.288 130.472 76.264C129.512 75.24 128.328 74.44 126.92 73.864C125.576 73.288 124.136 73 122.6 73C121.064 73 119.592 73.288 118.184 73.864C116.84 74.44 115.656 75.24 114.632 76.264C113.672 77.288 112.872 78.472 112.232 79.816C111.656 81.16 111.368 82.6 111.368 84.136ZM93.032 83.944C93.032 80.296 93.768 76.904 95.24 73.768C96.712 70.568 98.76 67.816 101.384 65.512C104.008 63.144 107.112 61.288 110.696 59.944C114.344 58.6 118.312 57.928 122.6 57.928C126.824 57.928 130.728 58.6 134.312 59.944C137.96 61.224 141.096 63.048 143.72 65.416C146.408 67.72 148.488 70.504 149.96 73.768C151.432 76.968 152.168 80.52 152.168 84.424C152.168 88.328 151.4 91.912 149.864 95.176C148.392 98.376 146.344 101.16 143.72 103.528C141.096 105.832 137.928 107.624 134.216 108.904C130.568 110.184 126.6 110.824 122.312 110.824C118.088 110.824 114.184 110.184 110.6 108.904C107.016 107.624 103.912 105.8 101.288 103.432C98.728 101.064 96.712 98.248 95.24 94.984C93.768 91.656 93.032 87.976 93.032 83.944Z" fill="#212121"/>
<path d="M156.952 59.752H174.328V67.816C176.184 64.872 178.456 62.632 181.144 61.096C183.832 59.496 186.968 58.696 190.552 58.696C191 58.696 191.48 58.696 191.992 58.696C192.568 58.696 193.208 58.76 193.912 58.888V75.496C191.608 74.344 189.112 73.768 186.424 73.768C182.392 73.768 179.352 74.984 177.304 77.416C175.32 79.784 174.328 83.272 174.328 87.88V109H156.952V59.752Z" fill="#212121"/>
<path d="M216.328 29.32V77.512L234.568 59.752H258.376L233.704 82.504L259.816 109H235.432L216.328 88.936V109H198.952V29.32H216.328Z" fill="#212121"/>
<path d="M272.768 74.248V109H255.392V74.248H249.152V59.752H255.392V52.36C255.392 48.264 255.776 45 256.544 42.568C257.184 40.52 258.208 38.632 259.616 36.904C261.024 35.112 262.656 33.576 264.512 32.296C266.432 31.016 268.48 30.024 270.656 29.32C272.832 28.616 274.976 28.264 277.088 28.264C278.56 28.264 279.904 28.424 281.12 28.744C282.4 29.064 283.68 29.512 284.96 30.088V45.256C283.808 44.68 282.72 44.264 281.696 44.008C280.736 43.688 279.712 43.528 278.624 43.528C277.92 43.528 277.184 43.656 276.416 43.912C275.712 44.104 275.04 44.552 274.4 45.256C273.76 45.96 273.312 46.984 273.056 48.328C272.864 49.608 272.768 51.368 272.768 53.608V59.752H284.96V74.248H272.768Z" fill="#212121"/>
<path d="M322.952 77.224C322.376 74.792 321.192 72.84 319.4 71.368C317.608 69.896 315.432 69.16 312.872 69.16C310.184 69.16 307.976 69.864 306.248 71.272C304.584 72.68 303.528 74.664 303.08 77.224H322.952ZM302.6 87.304C302.6 94.792 306.12 98.536 313.16 98.536C316.936 98.536 319.784 97 321.704 93.928H338.504C335.112 105.192 326.632 110.824 313.064 110.824C308.904 110.824 305.096 110.216 301.64 109C298.184 107.72 295.208 105.928 292.712 103.624C290.28 101.32 288.392 98.568 287.048 95.368C285.704 92.168 285.032 88.584 285.032 84.616C285.032 80.52 285.672 76.84 286.952 73.576C288.232 70.248 290.056 67.432 292.424 65.128C294.792 62.824 297.64 61.064 300.968 59.848C304.36 58.568 308.168 57.928 312.392 57.928C316.552 57.928 320.296 58.568 323.624 59.848C326.952 61.064 329.768 62.856 332.072 65.224C334.376 67.592 336.136 70.504 337.352 73.96C338.568 77.352 339.176 81.192 339.176 85.48V87.304H302.6Z" fill="#212121"/>
<path d="M379.952 77.224C379.376 74.792 378.192 72.84 376.4 71.368C374.608 69.896 372.432 69.16 369.872 69.16C367.184 69.16 364.976 69.864 363.248 71.272C361.584 72.68 360.528 74.664 360.08 77.224H379.952ZM359.6 87.304C359.6 94.792 363.12 98.536 370.16 98.536C373.936 98.536 376.784 97 378.704 93.928H395.504C392.112 105.192 383.632 110.824 370.064 110.824C365.904 110.824 362.096 110.216 358.64 109C355.184 107.72 352.208 105.928 349.712 103.624C347.28 101.32 345.392 98.568 344.048 95.368C342.704 92.168 342.032 88.584 342.032 84.616C342.032 80.52 342.672 76.84 343.952 73.576C345.232 70.248 347.056 67.432 349.424 65.128C351.792 62.824 354.64 61.064 357.968 59.848C361.36 58.568 365.168 57.928 369.392 57.928C373.552 57.928 377.296 58.568 380.624 59.848C383.952 61.064 386.768 62.856 389.072 65.224C391.376 67.592 393.136 70.504 394.352 73.96C395.568 77.352 396.176 81.192 396.176 85.48V87.304H359.6Z" fill="#212121"/>
<path d="M417.08 84.232C417.08 85.832 417.368 87.336 417.944 88.744C418.52 90.088 419.288 91.272 420.248 92.296C421.272 93.32 422.456 94.12 423.8 94.696C425.208 95.272 426.712 95.56 428.312 95.56C429.848 95.56 431.288 95.272 432.632 94.696C434.04 94.12 435.224 93.32 436.184 92.296C437.208 91.272 438.008 90.088 438.584 88.744C439.224 87.4 439.544 85.96 439.544 84.424C439.544 82.888 439.224 81.448 438.584 80.104C438.008 78.696 437.208 77.48 436.184 76.456C435.224 75.432 434.04 74.632 432.632 74.056C431.288 73.48 429.848 73.192 428.312 73.192C426.776 73.192 425.304 73.48 423.896 74.056C422.552 74.632 421.368 75.432 420.344 76.456C419.384 77.48 418.584 78.664 417.944 80.008C417.368 81.288 417.08 82.696 417.08 84.232ZM438.968 29.32H456.44V109H438.968V103.528C435.256 108.2 430.232 110.536 423.896 110.536C420.312 110.536 417.016 109.864 414.008 108.52C411 107.176 408.376 105.32 406.136 102.952C403.896 100.584 402.136 97.8 400.856 94.6C399.64 91.4 399.032 87.944 399.032 84.232C399.032 80.712 399.608 77.384 400.76 74.248C401.976 71.048 403.672 68.264 405.848 65.896C408.024 63.528 410.616 61.672 413.624 60.328C416.696 58.92 420.056 58.216 423.704 58.216C429.848 58.216 434.936 60.36 438.968 64.648V29.32Z" fill="#212121"/>
<rect x="295" y="30" width="134" height="17" fill="#54E2ED"/>
<rect x="439" y="120" width="18" height="17" fill="#DB00FF"/>
<rect x="256" y="120" width="173" height="17" fill="#3D7AFF"/>
</svg>
